<svg width="70" height="43" viewBox="0 0 70 43" fill="none" xmlns="http://www.w3.org/2000/svg">
<path fill-rule="evenodd" clip-rule="evenodd" d="M0 5C0 2.23858 2.23858 0 5 0L65 0C67.7614 0 70 2.23858 70 5V29C70 31.7614 67.7614 34 65 34H42.002L35.1211 43L27.3789 34H5C2.23858 34 0 31.7614 0 29L0 5Z" fill="white"/>
<path d="M42.002 33.5H41.7548L41.6047 33.6963L35.0982 42.2067L27.758 33.6739L27.6083 33.5H27.3789H5C2.51472 33.5 0.5 31.4853 0.5 29V5C0.5 2.51472 2.51472 0.5 5 0.5H65C67.4853 0.5 69.5 2.51472 69.5 5V29C69.5 31.4853 67.4853 33.5 65 33.5H42.002Z" stroke="#02B6D1" stroke-opacity="0.192308"/>
</svg>
