<?xml version="1.0" standalone="no"?>
<!DOCTYPE svg PUBLIC "-//W3C//DTD SVG 1.1//EN" "http://www.w3.org/Graphics/SVG/1.1/DTD/svg11.dtd" >
<svg xmlns="http://www.w3.org/2000/svg">
<metadata>Generated by IcoMoon</metadata>
<defs>
<font id="StudioRentIcons" horiz-adv-x="1024">
<font-face units-per-em="1024" ascent="960" descent="-64" />
<missing-glyph horiz-adv-x="1024" />
<glyph unicode="&#x20;" horiz-adv-x="512" d="" />
<glyph unicode="&#xe900;" glyph-name="menu" d="M984 488h-944c-22.092 0-40-17.908-40-40s17.908-40 40-40h944c22.092 0 40 17.908 40 40s-17.908 40-40 40zM984 808h-944c-22.092 0-40-17.908-40-40s17.908-40 40-40h944c22.092 0 40 17.908 40 40s-17.908 40-40 40zM984 168h-944c-22.092 0-40-17.908-40-40s17.908-40 40-40h944c22.092 0 40 17.908 40 40s-17.908 40-40 40z" />
<glyph unicode="&#xe901;" glyph-name="tick" d="M463.521 101.103c-46.426-46.425-121.756-46.425-168.16 0l-260.542 260.542c-46.426 46.405-46.426 121.734 0 168.138 46.404 46.426 121.734 46.426 168.161 0l155.231-155.209c11.718-11.696 30.742-11.696 42.482 0l420.322 420.322c46.403 46.426 121.734 46.426 168.162 0 22.292-22.295 34.822-52.543 34.822-84.068s-12.53-61.775-34.822-84.069l-525.656-525.655z" />
<glyph unicode="&#xe902;" glyph-name="youtube" d="M912.651 784.557c43.865-11.812 78.449-46.394 90.252-90.263 21.935-80.125 21.092-247.138 21.092-247.138s0-166.164-21.079-246.294c-11.817-43.865-46.397-78.445-90.266-90.252-80.13-21.092-400.649-21.092-400.649-21.092s-319.69 0-400.658 21.93c-43.869 11.812-78.444 46.397-90.256 90.257-21.087 79.288-21.087 246.295-21.087 246.295s0 166.169 21.087 246.294c11.8 43.862 47.231 79.294 90.25 91.094 80.131 21.094 400.651 21.094 400.651 21.094s320.532 0 400.662-21.925zM676.479 448l-266.54 153.513v-307.024l266.54 153.511z" />
<glyph unicode="&#xe903;" glyph-name="facebook" d="M674.539 789.973h93.483v162.816c-16.128 2.219-71.595 7.211-136.192 7.211-134.784 0-227.115-84.779-227.115-240.597v-143.403h-148.736v-182.016h148.736v-457.984h182.357v457.941h142.72l22.656 182.016h-165.418v125.398c0.042 52.608 14.208 88.618 87.509 88.618z" />
<glyph unicode="&#xe904;" glyph-name="twitter" d="M1024 765.505c-38.079-16.704-78.655-27.776-120.957-33.152 43.519 25.984 76.731 66.816 92.352 116.031-40.581-24.192-85.379-41.28-133.12-50.816-38.532 41.024-93.444 66.432-153.348 66.432-116.22 0-209.791-94.336-209.791-209.984 0-16.64 1.408-32.641 4.864-47.872-174.528 8.512-328.96 92.16-432.704 219.584-18.112-31.424-28.736-67.392-28.736-106.112 0-72.704 37.44-137.152 93.248-174.463-33.728 0.64-66.816 10.432-94.848 25.856 0-0.64 0-1.472 0-2.304 0-102.016 72.768-186.751 168.192-206.272-17.088-4.672-35.712-6.912-55.040-6.912-13.44 0-27.007 0.768-39.744 3.584 27.2-83.136 104.384-144.256 196.16-146.238-71.424-55.874-162.112-89.539-260.288-89.539-17.216 0-33.728 0.769-50.24 2.881 92.992-59.967 203.2-94.209 322.048-94.209 386.306 0 597.504 320 597.504 597.376 0 9.28-0.323 18.24-0.769 27.136 41.667 29.568 76.674 66.496 105.217 108.992z" />
<glyph unicode="&#xe905;" glyph-name="instagram" d="M320 960h384c176.704 0 320-143.296 320-320v-384c0-176.704-143.296-320-320-320h-384c-176.704 0-320 143.296-320 320v384c0 176.704 143.296 320 320 320zM704 32c123.52 0 224 100.48 224 224v384c0 123.52-100.48 224-224 224h-384c-123.52 0-224-100.48-224-224v-384c0-123.52 100.48-224 224-224h384zM256 448c0 141.376 114.624 256 256 256s256-114.624 256-256c0-141.376-114.624-256-256-256s-256 114.624-256 256zM352 448c0-88.192 71.808-160 160-160s160 71.808 160 160c0 88.256-71.808 160-160 160s-160-71.744-160-160zM821.312 723.2c0-18.84-15.27-34.112-34.112-34.112s-34.112 15.272-34.112 34.112c0 18.84 15.27 34.112 34.112 34.112s34.112-15.272 34.112-34.112z" />
<glyph unicode="&#xe906;" glyph-name="mic" d="M316.951 573.216h103.113c15.753 0 28.538 13.001 28.538 29.047 0 16.043-12.763 29.043-28.516 29.043h-103.113v77.445h103.113c15.753 0 28.516 13 28.516 29.045s-12.763 29.045-28.516 29.045h-102.873c1.254 52.247 20.155 97.221 57.043 134.815 38.189 38.895 84.11 58.344 137.753 58.344 53.634 0 99.557-19.449 137.759-58.344 36.874-37.597 55.788-82.571 57.040-134.815h-99.28c-15.753 0-28.518-13.002-28.518-29.045s12.766-29.045 28.518-29.045h99.519v-77.445h-99.519c-15.753 0-28.518-13.001-28.518-29.043s12.766-29.047 28.518-29.047h99.519v-72.864h-99.519c-15.753 0-28.518-13.001-28.518-29.044 0-16.046 12.766-29.047 28.518-29.047h99.461c-0.283-54.105-19.343-100.482-57.235-139.090-38.202-38.919-84.122-58.344-137.755-58.344s-99.565 19.425-137.754 58.344c-37.902 38.608-56.951 84.985-57.236 139.090h103.055c15.753 0 28.516 13.001 28.516 29.047 0 16.043-12.763 29.044-28.516 29.044h-103.113v72.864zM801.91 558.16c7.871 7.83 17.172 11.745 27.942 11.745 10.759 0 20.067-3.925 27.942-11.759 7.851-7.868 11.793-17.145 11.793-27.863v-79.241c0-91.218-30.532-170.551-91.569-238.022-61.065-67.482-136.482-106.175-226.287-116.067v-81.732h158.928c10.759 0 20.077-3.895 27.942-11.749 7.851-7.844 11.79-17.121 11.79-27.86 0-10.718-3.939-20.009-11.79-27.863-7.864-7.834-17.183-11.749-27.942-11.749h-397.319c-10.771 0-20.088 3.915-27.941 11.749-7.865 7.868-11.792 17.145-11.792 27.863 0 10.738 3.928 20.029 11.792 27.86 7.853 7.854 17.172 11.749 27.941 11.749h158.926v81.732c-89.814 9.878-165.248 48.575-226.285 116.067-61.062 67.468-91.569 146.804-91.569 238.022v79.241c0 10.718 3.926 20.009 11.792 27.863 7.851 7.834 17.17 11.749 27.939 11.749 10.757 0 20.076-3.915 27.941-11.749 7.853-7.868 11.792-17.145 11.792-27.863v-79.241c0-76.367 27.208-141.684 81.636-195.946 54.416-54.265 119.917-81.398 196.488-81.398 76.561 0 142.056 27.133 196.485 81.398 54.415 54.262 81.637 119.579 81.637 195.946v79.254c0 10.714 3.925 20.009 11.79 27.863z" />
<glyph unicode="&#xe907;" glyph-name="paper-plane" d="M977.195 935.037c10.667 5.589 23.552 4.651 33.365-2.304 9.813-6.998 14.847-18.859 13.098-30.805l-117.332-789.331c-1.407-9.342-6.912-17.664-15.018-22.613-5.076-3.071-10.837-4.652-16.641-4.652-3.5 0-6.997 0.599-10.327 1.708l-447.273 152.875 439.807 529.874-568.362-485.973-266.879 91.222c-12.075 4.138-20.565 15.060-21.546 27.864-0.938 12.757 5.76 24.874 17.109 30.804l959.997 501.331zM373.337-10.665v197.886l173.523-59.306-115.755-157.527c-6.143-8.361-15.787-13.055-25.77-13.055-3.326 0-6.7 0.514-9.983 1.58-13.14 4.351-22.015 16.597-22.015 30.421z" />
<glyph unicode="&#xe908;" glyph-name="zoom-lens" d="M420.661 960c-232.222 0-420.478-188.256-420.478-420.478 0-232.226 188.256-420.482 420.478-420.482 232.226 0 420.482 188.256 420.482 420.482-0.201 232.14-188.341 420.277-420.482 420.478zM420.661 265.295c-151.449 0-274.224 122.774-274.224 274.227 0 151.449 122.775 274.224 274.224 274.224 151.453 0 274.227-122.775 274.227-274.224-0.201-151.368-122.86-274.026-274.227-274.227zM856.134 207.159l146.251-146.255c28.576-28.573 28.576-74.899 0-103.472-28.573-28.576-74.899-28.576-103.472 0l-146.255 146.251c-28.576 28.576-28.576 74.902 0 103.475 28.573 28.573 74.899 28.573 103.475 0z" />
<glyph unicode="&#xe909;" glyph-name="star-fill" d="M1001.776 493.93c20.157 19.642 27.273 48.472 18.578 75.271-8.714 26.8-31.412 45.93-59.3 49.989l-247.939 36.026c-10.56 1.539-19.684 8.161-24.4 17.736l-110.847 224.645c-12.446 25.241-37.707 40.926-65.86 40.926-28.132 0-53.393-15.686-65.839-40.926l-110.866-224.666c-4.717-9.576-13.861-16.198-24.421-17.736l-247.938-36.026c-27.865-4.039-50.584-23.19-59.299-49.989-8.693-26.799-1.579-55.629 18.577-75.271l179.392-174.861c7.648-7.463 11.155-18.208 9.351-28.705l-42.321-246.909c-3.752-21.734 1.949-42.881 16.014-59.55 21.858-25.98 60.016-33.891 90.527-17.855l221.733 116.585c9.268 4.859 20.934 4.818 30.183 0l221.754-116.585c10.785-5.681 22.287-8.553 34.16-8.553 21.673 0 42.218 9.641 56.345 26.408 14.087 16.669 19.767 37.851 16.014 59.55l-42.341 246.909c-1.804 10.518 1.702 21.242 9.35 28.705l179.394 174.882z" />
<glyph unicode="&#xe90a;" glyph-name="long-arrow-right" d="M1010.052 481.669l-304.722 304.724c-18.595 18.592-48.747 18.592-67.339 0-18.595-18.596-18.595-48.741 0-67.336l223.446-223.443h-813.824c-26.294 0-47.613-21.319-47.613-47.613 0-26.29 21.319-47.614 47.613-47.614h813.824l-223.438-223.443c-18.596-18.595-18.596-48.741 0-67.336 9.294-9.29 21.483-13.945 33.668-13.945s24.37 4.655 33.671 13.945l304.715 304.724c18.596 18.595 18.596 48.741 0 67.336z" />
<glyph unicode="&#xe90b;" glyph-name="long-arrow-left" d="M13.948 481.669l304.722 304.724c18.595 18.592 48.747 18.592 67.339 0 18.595-18.596 18.595-48.741 0-67.336l-223.446-223.443h813.824c26.294 0 47.613-21.319 47.613-47.613 0-26.29-21.319-47.614-47.613-47.614h-813.824l223.438-223.443c18.596-18.595 18.596-48.741 0-67.336-9.294-9.29-21.483-13.945-33.668-13.945s-24.37 4.655-33.671 13.945l-304.715 304.724c-18.596 18.595-18.596 48.741 0 67.336z" />
<glyph unicode="&#xe90c;" glyph-name="search" d="M747.568 280.774l243.712-253.478c20.621-21.44 19.936-55.635-1.491-76.25-10.080-9.709-23.366-15.046-37.37-15.046-14.797 0-28.602 5.875-38.861 16.538l-245.568 255.398c-69.727-49.005-151.283-74.816-236.865-74.816-227.967 0-413.439 185.472-413.439 413.441 0 227.967 185.473 413.439 413.439 413.439 227.969 0 413.441-185.473 413.441-413.439 0-97.572-34.336-191.297-96.998-265.786zM736.713 546.561c0 168.504-137.084 305.585-305.588 305.585s-305.585-137.082-305.585-305.585c0-168.504 137.082-305.588 305.585-305.588s305.588 137.084 305.588 305.588z" />
<glyph unicode="&#xe90d;" glyph-name="arrow-left" d="M227.539 487.956l455.693 455.685c10.54 10.548 24.609 16.359 39.611 16.359s29.071-5.811 39.611-16.359l33.559-33.55c21.837-21.862 21.837-57.394 0-79.222l-382.657-382.657 383.081-383.079c10.54-10.547 16.359-24.61 16.359-39.601 0-15.012-5.82-29.075-16.359-39.629l-33.559-33.546c-10.548-10.547-24.609-16.357-39.611-16.357s-29.071 5.809-39.611 16.357l-456.117 456.103c-10.565 10.581-16.367 24.709-16.334 39.727-0.033 15.077 5.769 29.196 16.334 39.769z" />
<glyph unicode="&#xe90e;" glyph-name="arrow-right" d="M796.461 408.044l-455.693-455.685c-10.54-10.548-24.609-16.359-39.611-16.359s-29.071 5.811-39.611 16.359l-33.559 33.55c-21.837 21.862-21.837 57.394 0 79.222l382.657 382.657-383.081 383.079c-10.54 10.547-16.359 24.61-16.359 39.601 0 15.012 5.82 29.075 16.359 39.629l33.559 33.546c10.548 10.547 24.609 16.357 39.611 16.357s29.071-5.809 39.611-16.357l456.117-456.103c10.565-10.581 16.367-24.709 16.334-39.727 0.033-15.077-5.769-29.196-16.334-39.769z" />
<glyph unicode="&#xe90f;" glyph-name="location" d="M512.036 960c95.732 0 185.746-37.308 253.443-105.043 125.283-125.332 140.852-361.149 33.288-504.603l-286.73-414.354-287.161 414.933c-107.134 142.874-91.565 378.691 33.718 504.024 67.697 67.735 157.692 105.043 253.443 105.043zM384.51 604.685c0-72.166 58.707-130.906 130.833-130.906s130.834 58.739 130.834 130.906c0 72.166-58.707 130.906-130.834 130.906s-130.833-58.739-130.833-130.906z" />
<glyph unicode="&#xe910;" glyph-name="calendar" d="M201.649 687.415h63.27c19.204 0 34.776 15.548 34.776 34.753v203.068c0 19.207-15.571 34.765-34.776 34.765h-63.27c-19.207 0-34.776-15.559-34.776-34.765v-203.068c0-19.204 15.569-34.753 34.776-34.753zM923.524 845.982v-123.869c0-55.988-45.421-101.105-101.402-101.105h-63.962c-55.987 0-102.010 45.117-102.010 101.105v124.314h-288.306v-124.314c0-55.988-46.019-101.105-101.994-101.105h-63.978c-55.977 0-101.395 45.117-101.395 101.105v123.869c-48.925-1.475-89.127-41.958-89.127-91.718v-725.93c0-50.701 41.090-92.333 91.785-92.333h817.724c50.624 0 91.789 41.722 91.789 92.333v725.93c0 49.759-40.205 90.243-89.126 91.718zM893.815 73.537c0-21.907-17.766-39.68-39.68-39.68h-686.016c-21.917 0-39.68 17.773-39.68 39.68v374.971c0 21.917 17.761 39.69 39.68 39.69h686.009c21.92 0 39.68-17.773 39.68-39.69l0.006-374.971zM373.085 395.067c0 12.828-10.405 23.219-23.243 23.219h-81.108c-12.823 0-23.229-10.392-23.229-23.219v-81.094c0-12.845 10.406-23.245 23.229-23.245h81.108c12.838 0 23.243 10.4 23.243 23.245v81.094zM575.784 395.067c0 12.828-10.407 23.219-23.22 23.219h-81.118c-12.823 0-23.23-10.392-23.23-23.219v-81.094c0-12.845 10.407-23.245 23.23-23.245h81.118c12.813 0 23.22 10.4 23.22 23.245v81.094zM755.261 418.286c12.826 0 23.232-10.392 23.232-23.219v-81.094c0-12.845-10.406-23.245-23.232-23.245h-81.107c-12.838 0-23.241 10.4-23.241 23.245v81.094c0 12.828 10.403 23.219 23.241 23.219h81.107zM373.085 192.347c0 12.851-10.405 23.232-23.243 23.232h-81.108c-12.823 0-23.229-10.381-23.229-23.232v-81.082c0-12.838 10.406-23.232 23.229-23.232h81.108c12.838 0 23.243 10.4 23.243 23.232v81.082zM552.564 215.579c12.813 0 23.22-10.381 23.22-23.232v-81.082c0-12.832-10.407-23.232-23.22-23.232h-81.118c-12.823 0-23.23 10.394-23.23 23.232v81.082c0 12.851 10.407 23.232 23.23 23.232h81.118zM778.493 192.347c0 12.851-10.406 23.232-23.219 23.232h-81.12c-12.838 0-23.241-10.381-23.241-23.232v-81.082c0-12.838 10.403-23.232 23.241-23.232h81.12c12.813 0 23.219 10.4 23.219 23.232v81.082zM820.618 687.415h-63.277c-19.2 0-34.771 15.548-34.771 34.753v203.068c0 19.207 15.571 34.765 34.771 34.765h63.277c19.194 0 34.765-15.559 34.758-34.765v-203.068c0-19.204-15.571-34.753-34.758-34.753z" />
<glyph unicode="&#xe911;" glyph-name="tick-round" d="M0.003 448.003c0 282.319 229.684 511.997 511.997 511.997 282.32 0 511.996-229.678 511.996-511.997s-229.683-512.003-511.996-512.003c-282.313 0-511.997 229.683-511.997 512.003zM457.289 227.683l282.444 282.448c24.788 24.788 24.788 65.119-0.007 89.916-12.015 12.009-27.976 18.62-44.96 18.62-16.981 0-32.945-6.61-44.954-18.62l-237.483-237.483-98.99 98.985c-12.005 12.014-27.974 18.629-44.956 18.629-16.987 0-32.951-6.614-44.956-18.624-12.009-12.009-18.624-27.974-18.624-44.96 0-16.983 6.614-32.947 18.624-44.956l143.951-143.953c12.009-12.008 27.974-18.616 44.956-18.616s32.947 6.608 44.956 18.616z" />
<glyph unicode="&#xe912;" glyph-name="close-round" d="M511.999 959.999c-282.878 0-511.999-229.121-511.999-511.999s229.121-511.999 511.999-511.999 512.001 229.118 512.001 511.999-229.121 511.999-512.001 511.999zM767.999 264.448l-72.449-72.449-183.552 183.552-183.552-183.552-72.449 72.449 183.552 183.552-183.552 183.552 72.449 72.449 183.552-183.552 183.552 183.552 72.449-72.449-183.552-183.552 183.552-183.552z" />
<glyph unicode="&#xe913;" glyph-name="arrow-down" d="M472.044 163.539l-455.685 455.693c-10.548 10.54-16.359 24.609-16.359 39.611s5.811 29.071 16.359 39.611l33.55 33.559c21.862 21.837 57.394 21.837 79.222 0l382.657-382.657 383.079 383.081c10.547 10.54 24.61 16.359 39.601 16.359 15.012 0 29.075-5.82 39.629-16.359l33.546-33.559c10.547-10.548 16.357-24.609 16.357-39.611s-5.809-29.071-16.357-39.611l-456.103-456.117c-10.581-10.565-24.709-16.367-39.727-16.334-15.077-0.033-29.196 5.769-39.769 16.334z" />
<glyph unicode="&#xe914;" glyph-name="arrow-up" d="M472.044 732.461l-455.685-455.693c-10.548-10.54-16.359-24.609-16.359-39.611s5.811-29.071 16.359-39.611l33.55-33.559c21.862-21.837 57.394-21.837 79.222 0l382.657 382.657 383.079-383.081c10.547-10.54 24.61-16.359 39.601-16.359 15.012 0 29.075 5.82 39.629 16.359l33.546 33.559c10.547 10.548 16.357 24.609 16.357 39.611s-5.809 29.071-16.357 39.611l-456.103 456.117c-10.581 10.565-24.709 16.367-39.727 16.334-15.077 0.033-29.196-5.769-39.769-16.334z" />
<glyph unicode="&#xe915;" glyph-name="caret-down" d="M532.078 115.278l487.631 640.36c5.145 6.779 5.681 15.568 1.511 22.81-4.217 7.264-12.507 11.813-21.577 11.813h-975.261c-9.070 0-17.384-4.549-21.603-11.813-1.852-3.224-2.78-6.757-2.78-10.268 0-4.394 1.463-8.766 4.316-12.542l487.63-640.36c4.558-5.984 12.044-9.539 20.066-9.539s15.507 3.576 20.066 9.539z" />
<glyph unicode="&#xe916;" glyph-name="caret-up" d="M532.078 780.722l487.631-640.36c5.145-6.779 5.681-15.568 1.511-22.81-4.217-7.264-12.507-11.813-21.577-11.813h-975.261c-9.070 0-17.384 4.549-21.603 11.813-1.852 3.224-2.78 6.757-2.78 10.268 0 4.394 1.463 8.766 4.316 12.542l487.63 640.36c4.558 5.984 12.044 9.539 20.066 9.539s15.507-3.576 20.066-9.539z" />
<glyph unicode="&#xe917;" glyph-name="caret-left" d="M179.278 468.078l640.36 487.631c6.779 5.145 15.568 5.681 22.81 1.511 7.264-4.217 11.813-12.507 11.813-21.577v-975.261c0-9.070-4.549-17.384-11.813-21.603-3.224-1.852-6.757-2.78-10.268-2.78-4.394 0-8.766 1.463-12.542 4.316l-640.36 487.63c-5.984 4.558-9.539 12.044-9.539 20.066s3.576 15.507 9.539 20.066z" />
<glyph unicode="&#xe918;" glyph-name="caret-right" d="M844.722 468.078l-640.36 487.631c-6.779 5.145-15.568 5.681-22.81 1.511-7.264-4.217-11.813-12.507-11.813-21.577v-975.261c0-9.070 4.549-17.384 11.813-21.603 3.224-1.852 6.757-2.78 10.268-2.78 4.394 0 8.766 1.463 12.542 4.316l640.36 487.63c5.984 4.558 9.539 12.044 9.539 20.066s-3.576 15.507-9.539 20.066z" />
<glyph unicode="&#xe919;" glyph-name="plus" d="M967.934 527.991h-375.942v375.291c0 30.887-25.006 56.711-55.894 56.711h-48.11c-30.878 0-55.994-25.825-55.994-56.711v-375.291h-375.99c-30.87 0-56.003-24.976-56.003-55.87v-48.385c0-30.868 25.126-55.735 56.003-55.735h375.999v-376.649c0-30.868 25.109-55.346 55.995-55.346h48.112c30.884 0 55.894 24.484 55.894 55.346v376.649h375.932c30.889 0 56.063 24.873 56.063 55.735v48.385c0 30.895-25.175 55.87-56.063 55.87z" />
<glyph unicode="&#xe91a;" glyph-name="pencil" d="M1003.116 837.684l-92.891 92.896c-35.903 35.901-94.198 35.901-130.223 0l-88.985-88.985 208.304-208.305 103.795 103.797c27.845 27.847 27.845 72.753 0 100.598zM636.75 787.446l208.305-208.303-527.278-527.275-208.188 208.3 527.161 527.278zM29.255-60.818c-17.062-4.153-32.466 11.141-28.676 28.201l52.609 236.383 208.187-208.3-232.122-56.284z" />
<glyph unicode="&#xe91b;" glyph-name="close" d="M602.562 447.989l402.673 402.692c25.021 24.997 25.021 65.557 0 90.555-25.016 25.019-65.531 25.019-90.547 0l-402.678-402.692-402.696 402.692c-25.018 25.019-65.533 25.019-90.551 0-25.018-24.997-25.018-65.557 0-90.555l402.697-402.692-402.697-402.693c-25.018-24.996-25.018-65.556 0-90.552 12.509-12.488 28.903-18.744 45.276-18.744s32.766 6.257 45.275 18.765l402.696 402.693 402.678-402.693c12.508-12.508 28.902-18.765 45.271-18.765 16.374 0 32.768 6.257 45.276 18.765 25.021 24.996 25.021 65.556 0 90.552l-402.673 402.673z" />
</font>
</defs>
</svg>
